<?xml version="1.0" standalone="no"?>
<!DOCTYPE svg PUBLIC "-//W3C//DTD SVG 20010904//EN"
 "http://www.w3.org/TR/2001/REC-SVG-20010904/DTD/svg10.dtd">
<svg version="1.0" xmlns="http://www.w3.org/2000/svg"
 width="385.000000pt" height="456.000000pt" viewBox="0 0 385.000000 456.000000"
 preserveAspectRatio="xMidYMid meet">
<metadata>
Created by potrace 1.13, written by Peter Selinger 2001-2015
</metadata>
<g transform="translate(0.000000,456.000000) scale(0.100000,-0.100000)"
fill="#000000" stroke="none">
<path d="M1809 4336 l-226 -214 75 -299 c41 -164 77 -301 81 -305 3 -4 139
-45 301 -92 l295 -85 70 67 c38 37 139 134 224 215 l154 148 -72 297 c-41 163
-77 301 -81 305 -4 4 -87 30 -184 58 -98 27 -229 65 -292 84 -64 19 -116 35
-117 35 -2 0 -104 -96 -228 -214z"/>
<path d="M575 4028 c-121 -116 -219 -214 -219 -217 15 -69 149 -582 154 -591
4 -6 139 -49 300 -95 l293 -84 41 36 c90 81 364 350 385 379 21 30 22 33 8 80
-8 27 -42 159 -75 293 l-59 243 -169 49 c-214 62 -422 119 -432 118 -4 0 -106
-95 -227 -211z"/>
<path d="M2700 3444 c-113 -107 -213 -204 -224 -214 -16 -15 -17 -24 -8 -61
18 -79 142 -562 144 -564 2 -2 68 -21 148 -44 80 -22 206 -59 280 -81 74 -22
142 -40 150 -40 29 0 460 407 460 434 0 9 -27 121 -59 248 -33 128 -64 258
-71 289 -9 46 -15 58 -33 62 -28 6 -238 66 -430 123 -82 24 -150 44 -150 44
-1 0 -94 -88 -207 -196z"/>
<path d="M352 2926 c-54 -51 -119 -116 -147 -143 -27 -27 -83 -79 -124 -115
l-73 -66 26 -109 c44 -181 124 -495 128 -498 6 -6 586 -175 601 -175 4 0 7 5
7 10 0 6 17 25 38 43 20 17 80 72 132 122 52 49 133 125 178 168 l83 78 -31
137 c-17 75 -50 213 -73 306 l-42 168 -120 35 c-160 46 -475 133 -482 133 -3
0 -48 -42 -101 -94z"/>
<path d="M2328 2205 l-227 -215 31 -113 c16 -61 51 -197 78 -300 27 -104 50
-191 53 -193 3 -3 137 -43 298 -89 280 -81 294 -84 314 -67 11 9 70 64 130
122 135 130 299 285 303 286 2 1 -71 304 -124 511 -30 118 -2 98 -234 162 -80
22 -197 56 -260 75 -63 20 -120 36 -125 36 -6 0 -112 -97 -237 -215z"/>
<path d="M219 1362 l-66 -27 24 -52 c39 -86 51 -181 63 -503 6 -168 14 -357
17 -421 l6 -117 61 15 c33 8 71 20 82 28 12 8 68 103 124 212 189 366 232 445
240 436 4 -4 13 -105 19 -223 6 -118 16 -272 22 -341 l12 -126 82 20 82 20 76
156 c42 86 126 250 187 366 61 116 130 253 153 305 37 85 42 103 42 174 l0 80
-50 13 c-98 25 -100 24 -114 -68 -20 -130 -64 -262 -152 -449 -45 -96 -99
-217 -122 -268 -22 -51 -43 -90 -48 -85 -4 4 -11 194 -15 421 -3 226 -8 412
-10 412 -10 0 -147 -40 -151 -44 -3 -3 -31 -65 -62 -138 -84 -194 -277 -578
-290 -578 -4 0 -11 105 -15 233 -7 224 0 333 24 418 14 46 14 46 -19 52 -19 4
-33 16 -42 35 -12 28 -66 73 -85 71 -5 0 -39 -13 -75 -27z"/>
<path d="M1717 1016 c-94 -47 -195 -152 -245 -257 -23 -46 -48 -112 -56 -145
-18 -71 -21 -217 -5 -262 11 -31 90 -92 120 -92 8 0 43 13 77 30 71 33 147
105 205 193 21 31 40 57 42 57 3 0 2 -26 -1 -59 -9 -82 2 -144 31 -175 49 -52
167 -26 239 54 38 42 89 135 84 152 -2 6 -40 -17 -83 -50 l-80 -60 -3 69 c-4
98 30 275 82 423 51 148 59 138 -102 135 -59 -1 -137 3 -175 8 -64 9 -70 8
-130 -21z m159 -87 c17 -10 38 -27 48 -38 17 -19 15 -24 -47 -153 -76 -155
-128 -236 -190 -297 -33 -32 -50 -41 -65 -37 -31 10 -45 57 -37 123 24 206 93
355 190 415 32 19 52 17 101 -13z"/>
<path d="M2359 1043 c-31 -5 -39 -24 -39 -98 0 -69 -19 -172 -83 -445 -68
-289 -76 -329 -86 -420 l-7 -72 87 4 c48 1 90 6 94 9 3 4 10 49 15 100 5 52
12 113 15 135 l6 42 109 -6 c108 -5 111 -4 174 27 195 96 349 418 292 613 -22
75 -60 108 -125 108 -93 0 -180 -63 -281 -204 -30 -42 -56 -73 -58 -68 -1 4 7
35 18 67 27 77 36 165 21 193 -10 19 -20 22 -69 21 -31 -1 -69 -4 -83 -6z
m391 -231 c0 -154 -40 -275 -120 -365 -23 -26 -56 -55 -72 -63 -31 -16 -51
-12 -135 23 l-33 13 24 63 c72 190 170 338 265 399 69 43 71 42 71 -70z"/>
<path d="M3163 1043 l-33 -4 0 -62 c0 -85 -22 -215 -69 -405 -56 -227 -92
-405 -98 -491 l-6 -73 86 3 c47 2 88 7 91 10 3 3 10 52 16 110 5 57 12 118 15
134 l5 30 112 0 c103 0 118 3 172 28 71 33 142 89 152 119 3 12 21 42 39 67
74 104 105 203 105 336 0 133 -42 195 -130 195 -95 0 -191 -72 -287 -213 -26
-37 -49 -64 -51 -59 -1 5 6 43 18 83 25 91 27 184 4 193 -16 6 -86 6 -141 -1z
m397 -225 c0 -51 -7 -122 -15 -157 -20 -84 -78 -192 -126 -236 -34 -30 -46
-35 -88 -35 -54 0 -96 13 -123 37 -16 14 -12 25 58 162 84 163 138 239 198
280 90 62 96 58 96 -51z"/>
</g>
</svg>
